# xmcd
#
# Track frame offsets:
#	150
#	17399
#	48639
#	78319
#	102559
#	121213
#	139691
#	158380
#	174540
#	201436
#	218685
#	246255
#	269358
#	287677
#	309225
#
# Disc length: 4355 seconds
#
# Revision: 0
# Processed by: cddbd v1.5.2PL0 Copyright (c) Steve Scherf et al.
# Submitted via: EasyCDDAExtractor 16.0.1.1
#
DISCID=cb11010f
DTITLE=Various Artist - 2012 Steppin' Music Vol. 20
DYEAR=1900
DGENRE=
TTITLE0=Amy Winehouse - Half Time
TTITLE1=Mistery - Lounge Jam
TTITLE2=Rudy Currence - Don't Say Goodbye
TTITLE3=Cumate - Che Cos'e
TTITLE4=Shuane - Make Me Wanna Fly
TTITLE5=Robin Thicke - New Generation
TTITLE6=Maysa - Motions Of Love
TTITLE7=N'Dambi - We Got What it Takes
TTITLE8=Chamber 13 - Tahiti Plage
TTITLE9=Syleena Johnson - If You Play Your Cards Right 
TTITLE10=Johnny Gill - Just The Way You Are
TTITLE11=Numaro - First Icon
TTITLE12=Mary J Blige - Don't Mind
TTITLE13=Carol Duboc - ‌Inspiration
TTITLE14=Carol Duboc - This Is No Ordinary Love
EXTD=
EXTT0=
EXTT1=
EXTT2=
EXTT3=
EXTT4=
EXTT5=
EXTT6=
EXTT7=
EXTT8=
EXTT9=
EXTT10=
EXTT11=
EXTT12=
EXTT13=
EXTT14=
PLAYORDER=
